Title: Dare Mo Shiranai aka Nobody Knows
Year: 2004 
Country: Japan
Language: Japanese
Genre: Drama
Runtime: 141 min
Source: DVDRIP
Size: 1,95 GB
Directed by: Hirokazu Koreeda
Starring:
Yuya Yagira  ...  Akira Fukushima
Ayu Kitaura  ...  Kyoko
Hiei Kimura  ...  Shigeru
Momoko Shimizu  ...  Yuki
Hanae Kan  ...  Saki
You  ...  Keiko, the mother
Kazuyoshi Kushida  ...  Yoshinaga, The Landlord
Yukiko Okamoto  ...  Eriko Yoshinaga

IMDB Rating: 8.0/10

IMDB Link: http://www.imdb.com/title/tt0408664/


Audio: Japanese

THIS TORRENT HAS SOFT SUBTITLES IN ENGLISH AND BRAZILIAN PORTUGUESE.


Plot: In Tokyo, the reckless single mother Keiko moves to a small apartment with her twelve years old son Akira Fukushima and hidden in the luggage, his siblings Kyoko, Shigeru and Yuki. The children have different fathers and do not have schooling, but they have a happy life with their mother. When Keiko finds a new boyfriend, she leaves the children alone, giving some money to Akira and assigning him to take care of his siblings. When the money finishes, Akira manages to find means to survive with the youngsters without power supply, gas or water at home, and with the landlord asking for the rental. [IMDB]



General
Complete name                    : Nobody.Knows.2004.DVDRip.XviD.AC3.HORiZON-ArtSubs
Format                           : AVI
Format/Info                      : Audio Video Interleave
File size                        : 1.95 GiB
Duration                         : 2h 20mn
Overall bit rate                 : 1 985 Kbps
Writing application              : FairUse Wizard - http://fairusewizard.com
Writing library                  : The best and REALLY easy backup tool

Video
ID                               : 0
Format                           : MPEG-4 Visual
Format profile                   : Advanced Simple@L5
Format settings, BVOP            : Yes
Format settings, QPel            : No
Format settings, GMC             : No warppoints
Format settings, Matrix          : Default (H.263)
Muxing mode                      : Packed bitstream
Codec ID                         : XVID
Codec ID/Hint                    : XviD
Duration                         : 2h 20mn
Bit rate                         : 1 781 Kbps
Width                            : 624 pixels
Height                           : 384 pixels
Display aspect ratio             : 1.625
Frame rate                       : 29.970 fps
Color space                      : YUV
Chroma subsampling               : 4:2:0
Bit depth                        : 8 bits
Scan type                        : Progressive
Compression mode                 : Lossy
Bits/(Pixel*Frame)               : 0.248
Stream size                      : 1.75 GiB (90%)
Writing library                  : XviD 1.1.0 (UTC 2005-11-22)

Audio
ID                               : 1
Format                           : AC-3
Format/Info                      : Audio Coding 3
Mode extension                   : CM (complete main)
Codec ID                         : 2000
Duration                         : 2h 20mn
Bit rate mode                    : Constant
Bit rate                         : 192 Kbps
Channel(s)                       : 2 channels
Channel positions                : Front: L R
Sampling rate                    : 48.0 KHz
Bit depth                        : 16 bits
Compression mode                 : Lossy
Stream size                      : 193 MiB (10%)
Alignment                        : Split accross interleaves
Interleave, duration             : 33 ms (1.00 video frame)
Interleave, preload duration     : 500 ms


